<svg width="18" height="18" viewBox="0 0 18 18" fill="none" xmlns="http://www.w3.org/2000/svg">
<path fill-rule="evenodd" clip-rule="evenodd" d="M16.5 2.25H15C14.5875 2.25 14.25 2.5875 14.25 3V9.75C14.25 10.1625 14.5875 10.5 15 10.5H16.5V2.25ZM1.6275 7.59C1.545 7.7775 1.5 7.98 1.5 8.19V9C1.5 9.825 2.175 10.5 3 10.5H7.125L6.435 13.9875C6.3975 14.1525 6.42 14.3325 6.495 14.4825C6.6675 14.82 6.885 15.1275 7.155 15.3975L7.5 15.75L12.3075 10.9425C12.5925 10.6575 12.75 10.275 12.75 9.8775V4.005C12.75 3.0375 11.9625 2.25 10.995 2.25H4.92C4.3875 2.25 3.9 2.5275 3.63 2.9775L1.6275 7.59Z" fill="#D12800"/>
</svg>
