<svg width="18" height="18" viewBox="0 0 18 18" fill="none" xmlns="http://www.w3.org/2000/svg">
<path fill-rule="evenodd" clip-rule="evenodd" d="M1.5 15.75H3C3.4125 15.75 3.75 15.4125 3.75 15V8.25C3.75 7.8375 3.4125 7.5 3 7.5H1.5V15.75ZM16.3725 10.41C16.455 10.2225 16.5 10.02 16.5 9.81V9C16.5 8.175 15.825 7.5 15 7.5H10.875L11.565 4.0125C11.6025 3.8475 11.58 3.6675 11.505 3.5175C11.3325 3.18 11.115 2.8725 10.845 2.6025L10.5 2.25L5.6925 7.0575C5.4075 7.3425 5.25 7.725 5.25 8.1225V14.0025C5.25 14.9625 6.0375 15.75 7.005 15.75H13.0875C13.6125 15.75 14.1075 15.4725 14.3775 15.0225L16.3725 10.41Z" fill="black"/>
</svg>
