<?xml version="1.0" encoding="UTF-8"?>
<svg width="306px" height="176px" viewBox="0 0 306 176" version="1.1" xmlns="http://www.w3.org/2000/svg" xmlns:xlink="http://www.w3.org/1999/xlink">
    <title>logo</title>
    <defs>
        <polygon id="path-1" points="0 0 63 0 63 66 0 66"></polygon>
        <polygon id="path-3" points="0 0 58 0 58 53 0 53"></polygon>
        <polygon id="path-5" points="0 0 58 0 58 53 0 53"></polygon>
        <polygon id="path-7" points="0 0 48 0 48 53 0 53"></polygon>
        <polygon id="path-9" points="0 0 20 0 20 20 0 20"></polygon>
    </defs>
    <g id="Page-1" stroke="none" stroke-width="1" fill="none" fill-rule="evenodd">
        <g id="Group-18" transform="translate(0.000000, 54.000000)">
            <g id="Group-3">
                <mask id="mask-2" fill="white">
                    <use xlink:href="#path-1"></use>
                </mask>
                <g id="Clip-2"></g>
                <path d="M44.0812356,45.8227928 C44.0812356,41.2973737 40.675711,39.1283269 34.2434782,39.1283269 L18.5405361,39.1283269 L18.5405361,52.5172588 L34.2434782,52.5172588 C40.675711,52.5172588 44.0812356,50.3487982 44.0812356,45.8227928 L44.0812356,45.8227928 Z M18.5405361,13.4829171 L18.5405361,26.2116661 L31.4052959,26.2116661 C37.6487087,26.2116661 40.8648251,24.0426193 40.8648251,19.7998007 C40.8648251,15.6510845 37.6487087,13.4829171 31.4052959,13.4829171 L18.5405361,13.4829171 Z M63,47.8971509 C63,59.305534 53.5404708,66 35.7566852,66 L0,66 L0,-0.000117261621 L33.8649558,-0.000117261621 C51.2705132,-0.000117261621 59.7835895,7.07105166 59.7835895,17.2540509 C59.7835895,23.5712276 56.5674731,28.6627271 50.8919908,31.5857662 C58.3647924,34.2256185 63,39.8826122 63,47.8971509 L63,47.8971509 Z" id="Fill-1" fill="#000000" mask="url(#mask-2)"></path>
            </g>
            <g id="Group-6" transform="translate(69.000000, 14.000000)">
                <mask id="mask-4" fill="white">
                    <use xlink:href="#path-3"></use>
                </mask>
                <g id="Clip-5"></g>
                <path d="M39.8038753,26.4050269 C39.8038753,18.6444508 35.1599622,14.2908421 29,14.2908421 C22.9346251,14.2908421 18.1961247,18.6444508 18.1961247,26.4050269 C18.1961247,34.2603554 22.9346251,38.7087165 29,38.7087165 C35.1599622,38.7087165 39.8038753,34.2603554 39.8038753,26.4050269 M0,26.4050269 C0,10.9783329 12.2253371,0 29,0 C45.9647215,0 58,10.9783329 58,26.4050269 C58,41.9264733 45.9647215,53.0001471 29,53.0001471 C12.2253371,53.0001471 0,41.9264733 0,26.4050269" id="Fill-4" fill="#000000" mask="url(#mask-4)"></path>
            </g>
            <g id="Group-9" transform="translate(131.000000, 14.000000)">
                <mask id="mask-6" fill="white">
                    <use xlink:href="#path-5"></use>
                </mask>
                <g id="Clip-8"></g>
                <path d="M39.8041527,26.4050269 C39.8041527,18.6444508 35.1603103,14.2908421 29.000442,14.2908421 C22.9351595,14.2908421 18.1958473,18.6444508 18.1958473,26.4050269 C18.1958473,34.2603554 22.9351595,38.7087165 29.000442,38.7087165 C35.1603103,38.7087165 39.8041527,34.2603554 39.8041527,26.4050269 M0,26.4050269 C0,10.9783329 12.2260347,0 29.000442,0 C45.964021,0 58,10.9783329 58,26.4050269 C58,41.9264733 45.964021,53.0001471 29.000442,53.0001471 C12.2260347,53.0001471 0,41.9264733 0,26.4050269" id="Fill-7" fill="#000000" mask="url(#mask-6)"></path>
            </g>
            <g id="Group-12" transform="translate(194.000000, 14.000000)">
                <mask id="mask-8" fill="white">
                    <use xlink:href="#path-7"></use>
                </mask>
                <g id="Clip-11"></g>
                <path d="M0,47.699897 L5.38533289,35.3962073 C10.1093607,38.3302954 17.0073813,40.1282372 23.2440968,40.1282372 C29.2913224,40.1282372 31.2755316,38.803469 31.2755316,36.6265175 C31.2755316,29.7178303 1.03910984,37.5728646 1.03910984,17.0354253 C1.03910984,7.38215494 9.92104587,0 25.984503,0 C33.1651427,0 41.1019794,1.51456737 46.2043994,4.35360874 L40.8181852,16.5622517 C35.7157651,13.7232103 30.6133451,12.7768632 26.0788072,12.7768632 C20.0315817,12.7768632 17.8578826,14.4800526 17.8578826,16.3730411 C17.8578826,23.4715274 48,15.8054094 48,36.1533439 C48,45.6176979 39.3066725,53.0001471 22.6765084,53.0001471 C13.9843561,53.0001471 5.0072344,50.8229014 0,47.699897" id="Fill-10" fill="#000000" mask="url(#mask-8)"></path>
            </g>
            <path d="M284,64.0935813 C280.916415,66.0625772 276.619565,67 271.946384,67 C258.953831,67 251.383632,60.6248838 251.383632,47.5939491 L251.383632,32.571574 L244,32.571574 L244,19.2590627 L251.383632,19.2590627 L251.383632,4 L269.141487,4 L269.141487,19.2590627 L280.732173,19.2590627 L280.732173,32.571574 L269.141487,32.571574 L269.141487,47.4062313 C269.141487,51.156214 271.929238,52.6037394 275.107269,52.6037394 C277.069708,52.6037394 282.504849,50.9492581 284,49.9182679 L284,64.0935813 Z" id="Fill-13" fill="#000000"></path>
            <g id="Group-17" transform="translate(288.000000, 46.000000)">
                <mask id="mask-10" fill="white">
                    <use xlink:href="#path-9"></use>
                </mask>
                <g id="Clip-16"></g>
                <path d="M20.0000589,10 C20.0000589,15.5228893 15.523001,20 10.0001767,20 C4.47735253,20 0,15.5228893 0,10 C0,4.47711071 4.47735253,0 10.0001767,0 C15.523001,0 20.0000589,4.47711071 20.0000589,10" id="Fill-15" fill="#EBC11C" mask="url(#mask-10)"></path>
            </g>
        </g>
    </g>
</svg>